<?xml version="1.0" standalone="no"?><!DOCTYPE svg PUBLIC "-//W3C//DTD SVG 1.1//EN" "http://www.w3.org/Graphics/SVG/1.1/DTD/svg11.dtd"><svg t="1702284912946" class="icon" viewBox="0 0 1024 1024" version="1.1" xmlns="http://www.w3.org/2000/svg" p-id="9057" xmlns:xlink="http://www.w3.org/1999/xlink" width="200" height="200"><path d="M512 1024C230.4 1024 0 793.6 0 512S230.4 0 512 0s512 230.4 512 512-230.4 512-512 512z" fill="#9478B5" p-id="9058"></path><path d="M1024 512c0-34.04-3.44-67.304-9.856-99.528L512.24 311.72l-7.456 0.68s-106.864 2.696-54.464 109.912c-82.392-11.472-122.032-1.352-101.344 54.624-11.72 14.16-31.424 32.88-33.096 48.552-1.408 13.152 22.752 35.744 17.92 38.44-18.592 10.392-27.576 19.56-31.024 35.4-3.44 15.84 18.616 25.288 18.616 25.288l37.232 197.248 135.752 201.488c7.224 0.352 14.496 0.48 21.792 0.544C795.864 1021.624 1024 792.2 1024 512z" fill="#5C4987" p-id="9059"></path><path d="M690.968 623.76s-8.736-37.48-191.904-38.224c-99.616-0.408-183.664 11.016-178.192 38.816" fill="#F4EDDD" p-id="9060"></path><path d="M652.216 487.856H359.624c-8.112 0-14.76-6.64-14.76-14.76V443.16c0-8.12 6.64-14.76 14.76-14.76h292.592c8.112 0 14.76 6.64 14.76 14.76v29.936c0 8.12-6.648 14.76-14.76 14.76" fill="#FDD896" p-id="9061"></path><path d="M671.288 572.792H340.544c-10.824 0-19.68-8.856-19.68-19.68v-45.584c0-10.824 8.856-19.68 19.68-19.68h330.744c10.824 0 19.68 8.856 19.68 19.68v45.584c0 10.832-8.856 19.68-19.68 19.68" fill="#FAC965" p-id="9062"></path><path d="M690.968 623.76l-46.512 198.192H359.704l-38.832-197.592" fill="#F4EDDD" p-id="9063"></path><path d="M644.448 828.84H359.704a6.894 6.894 0 0 1-6.752-5.56l-38.832-197.6a6.878 6.878 0 0 1 5.424-8.08c3.688-0.696 7.336 1.688 8.08 5.424l37.736 192.048H639l45.28-192.888c0.864-3.696 4.56-6.04 8.264-5.12a6.87 6.87 0 0 1 5.12 8.264l-46.512 198.192a6.886 6.886 0 0 1-6.704 5.32" fill="#474341" p-id="9064"></path><path d="M523.512 814.352h-0.008a4.816 4.816 0 0 1-4.808-4.824l0.056-42.608a4.82 4.82 0 0 1 4.816-4.808h0.008a4.816 4.816 0 0 1 4.808 4.824l-0.056 42.608a4.814 4.814 0 0 1-4.816 4.808M523.6 752.4h-0.008a4.816 4.816 0 0 1-4.808-4.824l0.152-109.144a4.82 4.82 0 0 1 4.816-4.808h0.008a4.816 4.816 0 0 1 4.808 4.824l-0.152 109.152c0 2.648-2.16 4.8-4.816 4.8M607.248 816.656a4.822 4.822 0 0 1-4.768-5.568l14.552-93.024c0.408-2.624 2.92-4.416 5.512-4.008a4.822 4.822 0 0 1 4.008 5.512L612 812.592a4.81 4.81 0 0 1-4.752 4.064M624.712 705.032a4.8 4.8 0 0 1-4.76-5.552l8.728-55.824a4.808 4.808 0 0 1 5.512-4.008 4.822 4.822 0 0 1 4.008 5.512l-8.728 55.808a4.824 4.824 0 0 1-4.76 4.064M565.384 812.616c-0.112 0-0.224 0-0.344-0.008a4.812 4.812 0 0 1-4.472-5.136l10.344-150.032c0.184-2.656 2.528-4.768 5.136-4.472a4.812 4.812 0 0 1 4.472 5.136l-10.344 150.032a4.8 4.8 0 0 1-4.792 4.48M479.832 813.816a4.81 4.81 0 0 1-4.816-4.816v-121.008c0-2.664 2.152-4.816 4.816-4.816s4.816 2.152 4.816 4.816V809a4.816 4.816 0 0 1-4.816 4.816M479.832 673.512a4.81 4.81 0 0 1-4.816-4.816v-45.544c0-2.664 2.152-4.816 4.816-4.816s4.816 2.152 4.816 4.816v45.544a4.816 4.816 0 0 1-4.816 4.816M395.488 814.352a4.816 4.816 0 0 1-4.744-4.008l-24.816-146.632a4.814 4.814 0 0 1 3.944-5.552 4.846 4.846 0 0 1 5.56 3.944l24.816 146.624a4.826 4.826 0 0 1-3.944 5.56c-0.28 0.048-0.544 0.064-0.816 0.064M368.32 653.816a4.816 4.816 0 0 1-4.744-4.008L359.2 623.96a4.826 4.826 0 0 1 3.944-5.56c2.552-0.464 5.112 1.304 5.56 3.944l4.384 25.856a4.82 4.82 0 0 1-4.768 5.616M435.528 812.736a4.812 4.812 0 0 1-4.792-4.48l-3.176-46.112a4.82 4.82 0 0 1 4.472-5.136c2.504-0.344 4.952 1.824 5.136 4.48l3.176 46.112a4.812 4.812 0 0 1-4.472 5.136h-0.344M430.384 737.928a4.812 4.812 0 0 1-4.792-4.48l-6.384-92.728a4.808 4.808 0 0 1 4.472-5.136c2.568-0.152 4.952 1.824 5.136 4.472l6.384 92.72a4.808 4.808 0 0 1-4.472 5.136c-0.12 0.016-0.232 0.016-0.344 0.016" fill="#DACEB6" p-id="9065"></path><path d="M339.904 570.368c-27.248 9.208-36.08 19.552-36.08 32.208 0 10.368 11.104 20.008 30.016 28.232 0.128 0 0.224 0.04 0.36 0.04 13.264 0 19.976-8.624 25.896-16.232 5.488-7.048 10.224-13.136 19.816-13.136s14.328 6.088 19.816 13.136c5.92 7.608 12.632 16.232 25.888 16.232 13.264 0 19.968-8.624 25.896-16.232 5.488-7.048 10.224-13.136 19.808-13.136 9.592 0 14.336 6.088 19.816 13.136 5.88 7.56 12.552 16.104 25.632 16.224l-0.072 0.04c13.264 0 19.968-8.624 25.896-16.232 5.488-7.048 10.224-13.136 19.816-13.136s14.328 6.08 19.816 13.136c5.92 7.608 12.632 16.232 25.888 16.232 13.264 0 19.968-8.624 25.896-16.232 5.488-7.048 10.216-13.136 19.808-13.136s14.336 6.08 19.816 13.136c3.448 4.432 7.208 9.16 12.336 12.368 13.984-7.352 22.04-15.64 22.04-24.456 0-11.456-13.328-22.08-36.064-30.816" fill="#F7BE15" p-id="9066"></path><path d="M608.112 637.768c-16.624 0-25.12-10.92-31.32-18.888-5.512-7.08-8.416-10.48-14.392-10.48-5.968 0-8.88 3.392-14.376 10.464-6.208 7.984-14.704 18.904-31.328 18.904-0.336 0-0.656-0.032-0.976-0.08-15.776-0.552-23.984-11.096-30.008-18.84-5.52-7.088-8.432-10.48-14.384-10.48-5.96 0-8.88 3.392-14.392 10.464-6.2 7.984-14.688 18.904-31.32 18.904-16.608 0-25.112-10.92-31.312-18.888-5.512-7.088-8.416-10.48-14.392-10.48-5.976 0-8.888 3.392-14.384 10.48-6.208 7.968-14.712 18.888-31.328 18.888-0.344 0-0.776-0.04-1.168-0.096a6.894 6.894 0 0 1-1.936-0.528c-22.656-9.864-34.152-21.48-34.152-34.544 0-17.24 12.576-29.192 40.76-38.72a6.866 6.866 0 0 1 8.712 4.312 6.872 6.872 0 0 1-4.312 8.712c-27.824 9.416-31.384 18.672-31.384 25.688 0 6.608 8.944 14.368 24.616 21.376 9.144-0.464 13.88-6.552 19.328-13.544 5.752-7.4 12.288-15.792 25.248-15.792s19.488 8.392 25.24 15.784c5.664 7.288 10.568 13.584 20.456 13.584 9.912 0 14.8-6.296 20.456-13.576 5.776-7.408 12.304-15.792 25.256-15.792 12.944 0 19.464 8.368 25.216 15.752 5.648 7.264 10.512 13.512 20.28 13.592 0.216 0.008 0.424 0.016 0.632 0.04 9.4-0.312 14.184-6.464 19.704-13.568 5.776-7.4 12.296-15.792 25.248-15.792 12.96 0 19.488 8.392 25.256 15.792 5.664 7.288 10.56 13.576 20.456 13.576 9.88 0 14.784-6.288 20.448-13.56 5.784-7.424 12.304-15.808 25.256-15.808 12.968 0 19.496 8.392 25.248 15.8 2.2 2.816 4.616 5.912 7.448 8.416 9.464-5.576 14.608-11.28 14.608-16.288 0-7.656-11.832-16.784-31.64-24.4a6.872 6.872 0 0 1-3.952-8.88 6.916 6.916 0 0 1 8.88-3.96c26.856 10.312 40.48 22.848 40.48 37.24 0 11.312-8.656 21.584-25.712 30.544a6.882 6.882 0 0 1-6.856-0.256c-6.312-3.952-10.64-9.512-14.112-13.976-5.512-7.08-8.416-10.48-14.392-10.48-5.96 0-8.872 3.392-14.368 10.464-6.24 8.024-14.736 18.92-31.336 18.92" fill="#474341" p-id="9067"></path><path d="M482.288 579.68h-123.192c-27.208 0-49.352-22.144-49.352-49.352s22.152-49.352 49.352-49.352a6.884 6.884 0 0 1 0 13.768c-19.624 0-35.584 15.96-35.584 35.584 0 19.624 15.96 35.592 35.584 35.592h123.192a6.88 6.88 0 1 1 0 13.76M652.744 579.68h-97.032c-3.8 0-6.888-3.08-6.888-6.88s3.088-6.88 6.888-6.88h97.032c19.624 0 35.592-15.968 35.592-35.592s-15.968-35.584-35.592-35.584a6.886 6.886 0 0 1 0-13.768c27.208 0 49.352 22.152 49.352 49.352 0 27.208-22.144 49.352-49.352 49.352" fill="#474341" p-id="9068"></path><path d="M391.28 494.736h-19.688c-21.144 0-38.36-17.208-38.36-38.36s17.208-38.36 38.36-38.36l44.72-0.312h0.048a6.88 6.88 0 0 1 0.048 13.76l-44.768 0.312c-13.616 0-24.632 11.024-24.632 24.592s11.024 24.592 24.584 24.592h19.688c3.8 0 6.88 3.08 6.88 6.88a6.884 6.884 0 0 1-6.88 6.896M640.248 494.736h-182.536a6.88 6.88 0 1 1 0-13.76h182.536c13.568 0 24.592-11.024 24.592-24.592s-11.024-24.592-24.592-24.592l-89.368 0.456h-0.04a6.88 6.88 0 0 1-6.88-6.84 6.896 6.896 0 0 1 6.84-6.928l89.408-0.456c21.192 0 38.392 17.208 38.392 38.36 0.008 21.144-17.2 38.352-38.352 38.352" fill="#474341" p-id="9069"></path><path d="M546.792 424.752h67.896c16.592 0 30.168-14.16 30.168-31.472 0-16.128-11.832-29.376-26.872-31.12-5.304 6.88-24.856 15.24-50.568 23.584" fill="#FAE4BD" p-id="9070"></path><path d="M614.68 431.64h-67.896a6.88 6.88 0 1 1 0-13.76h67.896c12.832 0 23.28-11.024 23.28-24.592 0-11.328-7.376-20.984-17.616-23.688-5.64 4.928-18.264 12.144-50.808 22.688a6.86 6.86 0 0 1-8.664-4.416 6.87 6.87 0 0 1 4.416-8.664c38.184-12.384 45.816-19.384 47.24-21.232 1.488-1.912 3.872-2.864 6.248-2.64 18.784 2.184 32.952 18.512 32.952 37.96 0 21.136-16.616 38.344-37.048 38.344" fill="#474341" p-id="9071"></path><path d="M501.392 318.88c35.744 0 60.576 27.424 60.576 61.376 0 33.96-28.976 61.48-64.72 61.48s-64.72-27.528-64.72-61.48c0-25.632 16.504-47.592 39.976-56.824" fill="#E9495B" p-id="9072"></path><path d="M497.248 446.56c-38.336 0-69.528-29.736-69.528-66.296 0-26.96 16.888-51.032 43.024-61.312a4.836 4.836 0 0 1 6.248 2.72 4.826 4.826 0 0 1-2.72 6.248c-22.432 8.824-36.912 29.368-36.912 52.344 0 31.248 26.864 56.656 59.896 56.656s59.904-25.408 59.904-56.656c0-32.248-23.968-56.568-55.752-56.568-2.664 0-4.816-2.152-4.816-4.816s2.152-4.816 4.816-4.816c37.272 0 65.384 28.456 65.384 66.2-0.008 36.552-31.2 66.296-69.544 66.296" fill="#474341" p-id="9073"></path><path d="M479.232 360.28c8.416 7.576 19.6 10.456 30.536 6.928 8.416-2.72 15.848-8.808 16.72-18.016 0.584-6.216-9.12-6.176-9.712 0-0.48 5.04-7.112 8.104-11.344 9.16-7.072 1.76-13.952-0.088-19.344-4.936-4.624-4.168-11.512 2.68-6.856 6.864" fill="#474341" p-id="9074"></path><path d="M504.144 346.272c-0.136-33.592 5.776-77.472 30.352-102.928 22.128-22.92 60.488-27.92 90.576-26.624 6.248 0.272 6.232-9.44 0-9.704-32.904-1.416-73.312 4.672-97.44 29.472-26.656 27.4-33.336 73.352-33.192 109.792 0.016 6.24 9.728 6.248 9.704-0.008" fill="#474341" p-id="9075"></path><path d="M656.68 516.96c9.464 5.592 12.264 17.544 5.208 26.344-3.872 4.832 2.952 11.736 6.864 6.864 10.928-13.608 8.104-32.552-7.168-41.584-5.4-3.192-10.288 5.2-4.904 8.376M638.296 445.472c4.832 4.864 5.824 11.44 3.304 17.712-2.328 5.8 7.056 8.312 9.36 2.576 3.76-9.376 1.256-20.056-5.8-27.16-4.416-4.432-11.28 2.432-6.864 6.872M585.432 554.8a4.86 4.86 0 0 1 0-9.712l59.168-0.04c2.68 0 4.856 2.168 4.856 4.856s-2.176 4.856-4.856 4.856l-59.168 0.04z" fill="#DD9D00" p-id="9076"></path></svg>